<svg width="32" height="32" viewBox="0 0 32 32" fill="none" xmlns="http://www.w3.org/2000/svg">
<g clip-path="url(#clip0_2004_167)">
<circle cx="16" cy="16" r="16" fill="white"/>
<path d="M23.5833 12.125H22.695L20.8533 6.5675C20.7009 6.10925 20.4239 5.71327 20.0597 5.43298C19.6955 5.15269 19.2617 5.00157 18.8167 5H17.0833C16.4875 5 16 5.53438 16 6.1875C16 6.84063 16.4875 7.375 17.0833 7.375H18.8167L20.3983 12.125H15.1875L14.7975 10.9375H14.895C15.4908 10.9375 15.9783 10.4031 15.9783 9.75C15.9783 9.09688 15.4908 8.5625 14.895 8.5625H11.6667C11.0708 8.5625 10.5833 9.09688 10.5833 9.75C10.5833 10.4031 11.0708 10.9375 11.6667 10.9375H12.4792L14.4508 16.875H13.725C13.2483 14.2269 11.2225 12.2675 8.6875 12.1369C5.65417 11.9706 3 14.7375 3 18.0625C3 21.3875 5.38333 24 8.41667 24C11.0817 24 13.2375 21.9931 13.725 19.25H18.275C18.7517 21.8981 20.7775 23.8575 23.3125 23.9881C26.3458 24.1425 29 21.3875 29 18.0506C29 14.7375 26.6167 12.125 23.5833 12.125ZM9.5 19.25H11.4717C11.0167 20.7106 9.73833 21.72 8.2 21.6131C6.58583 21.5063 5.2425 20.01 5.16667 18.2288C5.09083 16.1506 6.5425 14.5 8.41667 14.5C9.8575 14.5 11.0383 15.4856 11.4717 16.875H9.5C8.90417 16.875 8.41667 17.4094 8.41667 18.0625C8.41667 18.7156 8.90417 19.25 9.5 19.25ZM18.275 16.875H16.7583L15.9675 14.5H19.25C18.7733 15.1888 18.4267 15.9844 18.275 16.875ZM23.4533 21.625C21.785 21.5537 20.3767 19.9981 20.3333 18.1575C20.3117 17.0175 20.7558 16.02 21.4708 15.355L22.1425 17.3737C22.3483 17.9913 22.9658 18.3119 23.5292 18.0863C24.0925 17.8606 24.385 17.1838 24.1792 16.5662L23.4967 14.5119L23.5075 14.5C23.9418 14.4838 24.3747 14.5642 24.7799 14.7364C25.1851 14.9086 25.5543 15.1691 25.8651 15.502C26.1759 15.835 26.422 16.2335 26.5884 16.6736C26.7548 17.1137 26.8381 17.5861 26.8333 18.0625C26.8333 20.105 25.3383 21.6963 23.4533 21.625Z" fill="url(#paint0_linear_2004_167)"/>
</g>
<defs>
<linearGradient id="paint0_linear_2004_167" x1="3" y1="14.5" x2="29" y2="14.5" gradientUnits="userSpaceOnUse">
<stop stop-color="#FFB600"/>
<stop offset="1" stop-color="#E6A013"/>
</linearGradient>
<clipPath id="clip0_2004_167">
<rect width="32" height="32" fill="white"/>
</clipPath>
</defs>
</svg>
